<?xml version="1.0" encoding="UTF-8"?>
<svg width="1200pt" height="1200pt" fill="white" version="1.1" viewBox="0 0 1200 1200" xmlns="http://www.w3.org/2000/svg">
 <path d="m1159.7 537.94h-89.625c-30.562-232.31-229.5-412.31-470.06-412.31-124.69 0-238.13 48.375-322.87 127.13 18 9.75 33.562 24 44.625 41.812l52.875 82.688c57.562-58.125 137.26-94.312 225.19-94.312 153.37 0 281.06 109.88 310.13 254.81h-112.31c-17.062 0-27.375 18.938-18.188 33.375l180.94 277.87c8.4375 13.125 27.75 13.125 36.188 0l180.94-277.87c9.375-14.438-0.9375-33.375-18.188-33.375z"/>
 <path d="m878.26 905.26-52.875-82.688c-57.562 58.125-137.26 94.312-225.19 94.312-153.37 0-281.06-109.69-310.13-254.81h112.31c17.062 0 27.375-18.938 18.188-33.375l-180.94-277.87c-8.4375-13.125-27.75-13.125-36.188 0l-181.13 277.87c-9.375 14.438 0.9375 33.375 18.188 33.375h89.438c30.562 232.31 229.5 412.13 470.06 412.13 124.5 0 238.13-48.375 322.69-127.13-18-9.75-33.562-24-44.625-41.812z"/>
</svg>
