<?xml version="1.0" encoding="UTF-8" standalone="no"?>
<svg
   data-name="Layer 1"
   viewBox="0 0 64 80"
   fill="white"
   x="0px"
   y="0px"
   version="1.1"
   id="svg67"
   sodipodi:docname="noun-close-3444025.svg"
   inkscape:version="1.2.2 (b0a84865, 2022-12-01)"
   xmlns:inkscape="http://www.inkscape.org/namespaces/inkscape"
   xmlns:sodipodi="http://sodipodi.sourceforge.net/DTD/sodipodi-0.dtd"
   xmlns="http://www.w3.org/2000/svg"
   xmlns:svg="http://www.w3.org/2000/svg">
  <defs
     id="defs71" />
  <sodipodi:namedview
     id="namedview69"
     pagecolor="#ffffff"
     bordercolor="#000000"
     borderopacity="0.25"
     inkscape:showpageshadow="2"
     inkscape:pageopacity="0.0"
     inkscape:pagecheckerboard="0"
     inkscape:deskcolor="#d1d1d1"
     showgrid="false"
     inkscape:zoom="12.8375"
     inkscape:cx="17.604674"
     inkscape:cy="55.423564"
     inkscape:window-width="1387"
     inkscape:window-height="1205"
     inkscape:window-x="0"
     inkscape:window-y="25"
     inkscape:window-maximized="0"
     inkscape:current-layer="svg67" />
  <title
     id="title59">Basic ui 1</title>
  <path
     d="M58.89,5.11h0a5.6,5.6,0,0,0-7.92,0l-19,19-19-19a5.6,5.6,0,0,0-7.92,0h0a5.6,5.6,0,0,0,0,7.92l19,19-19,19a5.6,5.6,0,0,0,0,7.92h0a5.6,5.6,0,0,0,7.92,0l19-19,19,19a5.6,5.6,0,0,0,7.92,0h0a5.6,5.6,0,0,0,0-7.92l-19-19,19-19A5.6,5.6,0,0,0,58.89,5.11Z"
     id="path61" />
</svg>
