<?xml version="1.0" encoding="UTF-8"?>
<svg
        width="1200pt"
        height="1200pt"
        fill="white"
        version="1.1"
        viewBox="0 0 1200 1200"
        xmlns="http://www.w3.org/2000/svg"
        stroke="white" stroke-width="50"
>
 <path d="m970.78 127.22v945.61c0 37.219-30 67.219-67.219 67.219l-607.18-0.046876c-37.219 0-67.219-30-67.219-67.219l0.046876-304.78h68.391v264c0 22.781 18 40.781 40.781 40.781h524.39c22.781 0 40.781-18 40.781-40.781l-1.2188-862.78c0-22.781-18-40.781-40.781-40.781l-524.34-0.046875c-22.781 0-40.781 18-40.781 40.781v262.78h-68.391l-0.046874-304.74c0-37.219 30-67.219 67.219-67.219h607.22c38.344 0 68.344 30 68.344 67.219zm-518.39 630c-13.219 13.219-13.219 34.781 0 48 6 6 14.391 9.6094 24 9.6094 8.3906 0 18-3.6094 24-9.6094l199.22-205.22-199.22-204c-13.219-13.219-34.781-12-48 1.2188s-13.219 33.609 0 46.781l122.39 122.39h-312c-19.219 0-33.609 15.609-33.609 33.609 0 19.219 15.609 33.609 33.609 33.609h314.39z"/>
</svg>
