<?xml version="1.0" encoding="UTF-8"?>
<svg width="1200pt" height="1200pt" version="1.1" viewBox="0 0 1200 1200" xmlns="http://www.w3.org/2000/svg">
 <path d="m812.53 35.859 316.36 119.39c25.359 9.5156 41.062 33.609 41.062 59.109v771.42c0 28.734-19.078 52.969-45.234 60.703l-316.5 119.44c-32.719 12.281-69.188-4.2188-81.469-36.891-2.7656-7.3125-4.1719-14.859-4.1719-22.266v-57.656l-398.16 0.046875c-34.922 0-63.281-28.359-63.281-63.328s28.359-63.328 63.281-63.328h398.11v-644.76h-398.11c-34.922 0-63.281-28.359-63.281-63.328s28.359-63.328 63.281-63.328h398.11v-57.703c0-46.641 48.516-76.688 89.953-57.516zm-409.22 627.32-48.141 48.047c-24.703 24.75-24.703 64.828 0 89.578s64.875 24.75 89.578 0l155.9-155.9c24.703-24.75 24.703-64.828 0-89.578l-155.9-155.9c-24.703-24.75-64.875-24.75-89.578 0s-24.703 64.828 0 89.578l48.141 48.047-310.22-0.046875c-34.781 0-63.047 28.219-63.047 63.094 0 34.828 28.266 63.094 63.047 63.094z" fill-rule="evenodd"/>
</svg>
