<?xml version="1.0" encoding="UTF-8"?>
<svg width="1200pt" height="1200pt" version="1.1" viewBox="0 0 1200 1200" xmlns="http://www.w3.org/2000/svg">
 <path d="m956.25 398.06c-3.7227-91.926-42.867-178.85-109.23-242.57-66.367-63.715-154.81-99.285-246.82-99.262-92 0.023437-180.43 35.641-246.76 99.391-34.82 33.086-62.512 72.938-81.371 117.11-18.863 44.172-28.5 91.734-28.316 139.77 0 4.9727 1.9766 9.7422 5.4922 13.258 3.5156 3.5156 8.2852 5.4922 13.258 5.4922h198.75c4.9727 0 9.7422-1.9766 13.258-5.4922 3.5156-3.5156 5.4922-8.2852 5.4922-13.258-0.14844-31.922 12.426-62.59 34.949-85.215 22.52-22.629 53.129-35.348 85.051-35.348h4.6875c30.008 1.6211 58.355 14.27 79.605 35.52s33.898 49.598 35.52 79.605c0.79297 21.492-4.1797 42.809-14.398 61.73-10.223 18.926-25.32 34.77-43.727 45.895-54.336 32.703-99.367 78.805-130.79 133.89-31.418 55.09-48.172 117.32-48.652 180.73 0 4.9727 1.9766 9.7422 5.4922 13.258 3.5156 3.5156 8.2852 5.4922 13.258 5.4922h198c4.9727 0 9.7422-1.9766 13.258-5.4922 3.5156-3.5156 5.4922-8.2852 5.4922-13.258 0.41406-46.473 25.375-89.266 65.625-112.5 54.711-32.789 99.617-79.664 130.03-135.73s45.207-119.27 42.848-183.02z" fill="#fff"/>
 <path d="m717.75 1026c0 65.031-52.719 117.75-117.75 117.75s-117.75-52.719-117.75-117.75 52.719-117.75 117.75-117.75 117.75 52.719 117.75 117.75" fill="#fff"/>
</svg>
