<?xml version="1.0" encoding="UTF-8" standalone="no"?>
<svg
   version="1.1"
   x="0px"
   y="0px"
   fill="white"
   viewBox="0 0 100 125"
   enable-background="new 0 0 100 100"
   xml:space="preserve"
   id="svg69"
   sodipodi:docname="noun-image-411507.svg"
   inkscape:version="1.2.2 (b0a84865, 2022-12-01)"
   xmlns:inkscape="http://www.inkscape.org/namespaces/inkscape"
   xmlns:sodipodi="http://sodipodi.sourceforge.net/DTD/sodipodi-0.dtd"
   xmlns="http://www.w3.org/2000/svg"
   xmlns:svg="http://www.w3.org/2000/svg"><defs
     id="defs73" /><sodipodi:namedview
     id="namedview71"
     pagecolor="#ffffff"
     bordercolor="#000000"
     borderopacity="0.25"
     inkscape:showpageshadow="2"
     inkscape:pageopacity="0.0"
     inkscape:pagecheckerboard="0"
     inkscape:deskcolor="#d1d1d1"
     showgrid="false"
     inkscape:zoom="8.216"
     inkscape:cx="27.507303"
     inkscape:cy="62.5"
     inkscape:window-width="1387"
     inkscape:window-height="1205"
     inkscape:window-x="0"
     inkscape:window-y="25"
     inkscape:window-maximized="0"
     inkscape:current-layer="svg69" /><g
     id="g63"><path
       d="M83.762,12.236H16.237C10.042,12.236,5,17.277,5,23.473v53.053c0,0.017,0.003,0.031,0.003,0.047   c0.001,0.017,0.002,0.032,0.003,0.049c0.052,6.152,5.067,11.143,11.231,11.143h67.524c6.176,0,11.199-5.007,11.234-11.175   c0.001-0.009,0.002-0.019,0.002-0.027c0-0.013,0.002-0.023,0.002-0.036V23.473C95,17.277,89.959,12.236,83.762,12.236z    M83.762,84.58H16.237c-4.242,0-7.722-3.298-8.024-7.467l19.562-21.338c1.428-1.561,3.326-2.418,5.345-2.418   s3.916,0.857,5.345,2.418l20.01,21.828c0.313,0.34,0.742,0.516,1.173,0.516c0.384,0,0.77-0.14,1.075-0.419   c0.648-0.594,0.691-1.601,0.098-2.25l-4.773-5.207l9.165-9.722c1.457-1.544,3.396-2.395,5.46-2.395s4.002,0.851,5.46,2.395   l15.655,16.604C91.478,81.287,88.001,84.58,83.762,84.58z M91.816,72.518l-13.37-14.179c-2.063-2.19-4.825-3.396-7.775-3.396   s-5.712,1.205-7.775,3.396l-9.007,9.552L40.811,53.623c-2.039-2.224-4.771-3.448-7.691-3.448c-2.922,0-5.653,1.225-7.691,3.448   L8.184,72.436V23.473c0-4.441,3.612-8.055,8.054-8.055h67.524c4.442,0,8.055,3.614,8.055,8.055V72.518z"
       id="path59" /><path
       d="M69.293,22.846c-6.197,0-11.238,5.041-11.238,11.238c0,6.196,5.041,11.238,11.238,11.238   c6.196,0,11.238-5.042,11.238-11.238C80.531,27.887,75.489,22.846,69.293,22.846z M69.293,42.138c-4.442,0-8.055-3.612-8.055-8.054   c0-4.441,3.612-8.055,8.055-8.055c4.441,0,8.054,3.614,8.054,8.055C77.347,38.526,73.734,42.138,69.293,42.138z"
       id="path61" /></g></svg>
