<?xml version="1.0" encoding="UTF-8"?>
<svg width="1200pt" height="1200pt" version="1.1" viewBox="0 0 1200 1200" xmlns="http://www.w3.org/2000/svg">
 <path d="m610.67 1118.6c265.1 0 480-214.9 480-480 0-265.1-214.9-480-480-480-265.1 0-480 214.9-480 480 0 265.09 214.9 480 480 480zm56-286.26c0 30.926-25.07 56-56 56-30.93 0-56-25.074-56-56v-209.73c0-30.93 25.07-56 56-56 30.93 0 56 25.07 56 56zm0-368.47c0 30.926-25.07 56-56 56-30.93 0-56-25.074-56-56v-19.004c0-30.93 25.07-56 56-56 30.93 0 56 25.07 56 56z" fill="#fff" fill-rule="evenodd"/>
</svg>
