<?xml version="1.0" encoding="UTF-8" standalone="no"?>
<svg
   version="1.1"
   x="0px"
   y="0px"
   fill="white"
   viewBox="0 0 100 125"
   enable-background="new 0 0 100 100"
   xml:space="preserve"
   id="svg2"
   sodipodi:docname="noun-info-338834.svg"
   inkscape:version="1.4 (86a8ad7, 2024-10-11)"
   xmlns:inkscape="http://www.inkscape.org/namespaces/inkscape"
   xmlns:sodipodi="http://sodipodi.sourceforge.net/DTD/sodipodi-0.dtd"
   xmlns="http://www.w3.org/2000/svg"
   xmlns:svg="http://www.w3.org/2000/svg"><defs
     id="defs2" /><sodipodi:namedview
     id="namedview2"
     pagecolor="#ffffff"
     bordercolor="#000000"
     borderopacity="0.25"
     inkscape:showpageshadow="2"
     inkscape:pageopacity="0.0"
     inkscape:pagecheckerboard="0"
     inkscape:deskcolor="#d1d1d1"
     inkscape:zoom="9.336"
     inkscape:cx="50.021422"
     inkscape:cy="62.5"
     inkscape:window-width="3440"
     inkscape:window-height="1369"
     inkscape:window-x="-8"
     inkscape:window-y="-8"
     inkscape:window-maximized="1"
     inkscape:current-layer="svg2" /><path
     d="M44.861,30.925c0-1.216,0.456-2.245,1.368-3.088c0.912-0.843,2.169-1.264,3.772-1.264c1.603,0,2.86,0.421,3.772,1.264  c0.912,0.843,1.368,1.872,1.368,3.088c0,1.188-0.449,2.204-1.347,3.046c-0.898,0.843-2.162,1.264-3.792,1.264  s-2.894-0.414-3.792-1.243C45.31,33.163,44.861,32.141,44.861,30.925z M44.859,49.111c0-2.045,0.476-3.501,1.429-4.372  s2.198-1.306,3.736-1.306s2.783,0.435,3.736,1.306s1.413,2.327,1.379,4.372v18.637c0,2.045-0.468,3.505-1.404,4.375  c-0.936,0.87-2.173,1.303-3.711,1.303s-2.783-0.433-3.736-1.303c-0.953-0.87-1.429-2.33-1.429-4.375V49.111z"
     id="path1" /></svg>
