<?xml version="1.0" encoding="UTF-8"?>
<svg
        width="1200pt"
        height="1200pt"
        version="1.1"
        viewBox="0 0 1200 1200"
        xmlns="http://www.w3.org/2000/svg"
>
 <path d="m555.12 1200h-78.121c-1.0508-1.0117-2.2188-1.8984-3.4805-2.6406-49.441-22.559-73.199-67.922-60-120.84 35.398-145.92 72-291.6 108-437.4 4.9531-20.176 8.5195-40.66 10.68-61.32 1.4375-5.2305-0.21094-10.824-4.2578-14.438-4.043-3.6094-9.7852-4.6211-14.82-2.6016-8.2812 1.8672-16.328 4.6445-24 8.2773-17.762 7.4414-35.039 16.199-52.922 23.039-6.4336 4.0195-14.152 5.4609-21.605 4.0391-7.4531-1.4258-14.094-5.6094-18.594-11.719v-28.438c12.094-16.926 25.797-32.637 40.922-46.922 53.52-42.121 108-82.32 163.56-122.52 11.863-7.8008 24.586-14.203 37.918-19.078 17.41-7.5742 36.727-9.5859 55.32-5.7617 69.48 14.039 105.48 69.719 88.559 138.24-34.316 140.48-68.797 280.96-103.44 421.44-5.4453 22.887-9.4531 46.094-12 69.48-1.4062 5.2578 0.46875 10.844 4.7578 14.195 4.2891 3.3477 10.164 3.8047 14.922 1.1641 13.078-3.9609 25.441-10.32 38.16-15.48 15.359-6.7188 31.32-12.84 46.801-18.719 4.5156-1.6602 9.4414-1.832 14.059-0.49219 4.6211 1.3359 8.6914 4.1172 11.621 7.9336 3.2227 3.7734 5.1953 8.457 5.6445 13.398 0.45312 4.9414-0.64063 9.9023-3.125 14.199-3.8945 8.1797-8.8594 15.809-14.758 22.68-12.891 14.391-26.805 27.828-41.641 40.203-59.281 47.758-120 94.68-188.16 130.08z" fill="#fff"/>
 <path d="m656.16 295.56c-39.184-0.03125-76.75-15.629-104.43-43.363-27.68-27.734-43.207-65.332-43.168-104.52 0.042968-39.184 15.652-76.746 43.395-104.42 27.742-27.672 65.344-43.191 104.53-43.137 39.184 0.050781 76.742 15.672 104.41 43.422 27.664 27.746 43.172 65.352 43.109 104.54 0.03125 39.188-15.547 76.773-43.289 104.45-27.742 27.676-65.363 43.16-104.55 43.031z" fill="#fff"/>
</svg>
