<?xml version="1.0" encoding="UTF-8"?>
<svg width="1200pt" height="1200pt" version="1.1" viewBox="0 0 1200 1200" xmlns="http://www.w3.org/2000/svg">
 <path d="m763.2 688.8-3.6016 70.801c133.2 24 212.4 73.199 212.4 110.4 0 36-75.602 87.602-216 111.6-19.199 3.6016-31.199 21.602-28.801 40.801 3.6016 19.199 21.602 32.398 40.801 28.801 172.8-28.801 274.8-96 274.8-180 0.003906-94.805-127.2-157.2-279.6-182.4z"/>
 <path d="m529.2 897.6c-13.199-13.199-36-13.199-50.398 0-14.398 13.199-13.199 36 0 50.398l42 42c-181.2-14.398-292.8-75.602-292.8-120 0-38.398 87.602-91.199 232.8-114l-4.8008-70.801c-162 24-298.8 86.398-298.8 183.6 0 112.8 180 177.6 369.6 192l-49.199 49.199c-13.199 13.199-13.199 36 0 50.398 7.1992 7.1992 15.602 10.801 25.199 10.801 9.6016 0 18-3.6016 25.199-10.801l105.6-105.6c7.1992-7.1992 10.801-15.602 10.801-25.199 0-9.6016-3.6016-18-10.801-25.199z"/>
 <path d="m788.4 512.4-12-100.8c-7.1992-62.398-60-109.2-123.6-109.2h-86.398c-62.398 0-115.2 46.801-123.6 109.2l-12 100.8c-1.1992 13.199 7.1992 25.199 20.398 28.801 18 3.6016 37.199 7.1992 56.398 9.6016l13.199 236.4c1.1992 19.199 16.801 33.602 34.801 33.602h108c19.199 0 33.602-14.398 34.801-33.602l13.199-236.4c19.199-2.3984 38.398-6 56.398-9.6016 14.406-2.3984 22.809-15.598 20.406-28.801z"/>
 <path d="m726 146.4c0 64.289-52.113 116.4-116.4 116.4-64.289 0-116.4-52.113-116.4-116.4 0-64.285 52.113-116.4 116.4-116.4 64.285 0 116.4 52.113 116.4 116.4"/>
</svg>
