<?xml version="1.0" encoding="UTF-8" standalone="no"?>
<svg
   version="1.1"
   fill="white"
   viewBox="-5.0 -10.0 110.0 135.0"
   id="svg65"
   sodipodi:docname="magnify_icon.svg"
   inkscape:version="1.2.2 (b0a84865, 2022-12-01)"
   xmlns:inkscape="http://www.inkscape.org/namespaces/inkscape"
   xmlns:sodipodi="http://sodipodi.sourceforge.net/DTD/sodipodi-0.dtd"
   xmlns="http://www.w3.org/2000/svg"
   xmlns:svg="http://www.w3.org/2000/svg">
  <defs
     id="defs69" />
  <sodipodi:namedview
     id="namedview67"
     pagecolor="#ffffff"
     bordercolor="#000000"
     borderopacity="0.25"
     inkscape:showpageshadow="2"
     inkscape:pageopacity="0.0"
     inkscape:pagecheckerboard="0"
     inkscape:deskcolor="#d1d1d1"
     showgrid="false"
     inkscape:zoom="7.6074074"
     inkscape:cx="30.759494"
     inkscape:cy="67.5"
     inkscape:window-width="1387"
     inkscape:window-height="1205"
     inkscape:window-x="0"
     inkscape:window-y="25"
     inkscape:window-maximized="0"
     inkscape:current-layer="svg65" />
  <path
     d="m80.242 76.184-18.52-18.52c-0.87109-0.87109-1.0117-2.2344-0.33984-3.2656 3.0391-4.7461 4.2344-10.441 3.3594-16.008s-3.7578-10.621-8.1055-14.207c-4.3477-3.5859-9.8555-5.457-15.488-5.2578-6.4141 0.19922-12.449 3.0898-16.629 7.957-4.8711 5.6367-6.7188 13.281-4.9609 20.523 1.7578 7.2383 6.9062 13.184 13.82 15.957 6.918 2.7773 14.746 2.0391 21.02-1.9805 0.42578-0.26953 0.91797-0.41797 1.4219-0.41797 0.6875 0 1.3516 0.27344 1.8359 0.76172l18.52 18.52c1.1211 1.125 2.9414 1.125 4.0625 0 1.125-1.1211 1.125-2.9414 0-4.0625zm-25.309-21.242h0.003906c-3.4414 3.4375-8.1094 5.3711-12.973 5.3711-4.8633 0-9.5312-1.9336-12.969-5.375-3.4414-3.4375-5.375-8.1055-5.375-12.969 0-4.8672 1.9336-9.5312 5.375-12.973 3.4375-3.4375 8.1055-5.3711 12.969-5.3711 4.8633 0 9.5312 1.9297 12.973 5.3711 3.4492 3.4336 5.3906 8.1016 5.3906 12.973 0 4.8672-1.9414 9.5352-5.3906 12.973z"
     id="path59" />
</svg>
