<?xml version="1.0" encoding="UTF-8" standalone="no"?>
<svg
   version="1.1"
   fill="white"
   viewBox="-5.0 -10.0 110.0 135.0"
   id="svg3"
   sodipodi:docname="noun-open-7196208.svg"
   inkscape:version="1.4 (86a8ad7, 2024-10-11)"
   xmlns:inkscape="http://www.inkscape.org/namespaces/inkscape"
   xmlns:sodipodi="http://sodipodi.sourceforge.net/DTD/sodipodi-0.dtd"
   xmlns="http://www.w3.org/2000/svg"
   xmlns:svg="http://www.w3.org/2000/svg">
  <defs
     id="defs3" />
  <sodipodi:namedview
     id="namedview3"
     pagecolor="#ffffff"
     bordercolor="#000000"
     borderopacity="0.25"
     inkscape:showpageshadow="2"
     inkscape:pageopacity="0.0"
     inkscape:pagecheckerboard="0"
     inkscape:deskcolor="#d1d1d1"
     inkscape:zoom="8.6444444"
     inkscape:cx="54.948586"
     inkscape:cy="67.5"
     inkscape:window-width="3440"
     inkscape:window-height="1369"
     inkscape:window-x="-8"
     inkscape:window-y="-8"
     inkscape:window-maximized="1"
     inkscape:current-layer="svg3" />
  <path
     d="m50 58c1.6484 0 3-1.3516 3-3v-28.762l10.719 10.719c1.1094 1.1094 2.8203 1.3281 3.9805 0.51172 0.75-0.53125 1.2109-1.3203 1.2891-2.2188 0.078125-0.89062-0.23828-1.75-0.87109-2.3789l-10.719-10.719c-1.1484-1.1484-2.3984-1.9883-3.7188-2.4805-3.7891-1.4297-8.0781-0.51953-10.922 2.3203l-10.879 10.879c-0.64062 0.64062-0.94922 1.5195-0.85938 2.4219 0.089844 0.91016 0.57031 1.6992 1.3594 2.2188 1.1719 0.76953 2.7695 0.57031 3.8203-0.48047l10.801-10.801v28.762c0 1.6484 1.3516 3 3 3z"
     id="path1" />
  <path
     d="m36.5 81h27c9.6484 0 17.5-7.8516 17.5-17.5 0-6.6406-3.6992-12.629-9.6602-15.621-0.71875-0.35938-1.5312-0.42188-2.2891-0.17188-0.76172 0.25-1.3789 0.78906-1.7383 1.5-0.73828 1.4805-0.14062 3.2891 1.3398 4.0312 3.9219 1.9688 6.3516 5.8984 6.3516 10.262 0 6.3398-5.1602 11.5-11.5 11.5h-27c-6.3398 0-11.5-5.1602-11.5-11.5 0-4.3516 2.4297-8.2812 6.3398-10.25 0.71875-0.35938 1.25-0.98047 1.5-1.7383 0.25-0.76172 0.19141-1.5703-0.17188-2.2891-0.35938-0.71875-0.98047-1.25-1.7383-1.5-0.30859-0.10156-0.62109-0.14844-0.94141-0.14844-0.46094 0-0.92188 0.10938-1.3516 0.32031-5.9492 3-9.6406 8.9805-9.6406 15.609 0 9.6484 7.8516 17.5 17.5 17.5z"
     id="path2" />
</svg>
